HIERARCHY
ROOT Hips
{
 OFFSET 0.000000 0.000000 0.000000
 CHANNELS 6 Xposition Yposition Zposition Yrotation Xrotation Zrotation
 JOINT Chest
 {
  OFFSET 0.000000 9.585900 0.002600
  CHANNELS 3 Yrotation Xrotation Zrotation
  JOINT Chest2
  {
   OFFSET 0.000000 9.601200 -0.005300
   CHANNELS 3 Yrotation Xrotation Zrotation
   JOINT Chest3
   {
    OFFSET 0.000000 9.561800 0.000000
    CHANNELS 3 Yrotation Xrotation Zrotation
    JOINT Chest4
    {
     OFFSET 0.000000 9.552100 0.000000
     CHANNELS 3 Yrotation Xrotation Zrotation
     JOINT Neck
     {
      OFFSET 0.000000 14.453000 0.000000
      CHANNELS 3 Yrotation Xrotation Zrotation
      JOINT Head
      {
       OFFSET 0.000000 8.936500 -0.011300
       CHANNELS 3 Yrotation Xrotation Zrotation
       End Site
       {
        OFFSET 0.000000 17.073600 -0.006000
       }
      }
     }
     JOINT RightCollar
     {
      OFFSET -2.921100 9.558500 0.000000
      CHANNELS 3 Yrotation Xrotation Zrotation
      JOINT RightShoulder
      {
       OFFSET -13.519700 0.000000 0.000000
       CHANNELS 3 Yrotation Xrotation Zrotation
       JOINT RightElbow
       {
        OFFSET 0.000000 -29.696600 0.000000
        CHANNELS 3 Yrotation Xrotation Zrotation
        JOINT RightWrist
        {
         OFFSET 0.000000 -24.004700 0.000000
         CHANNELS 3 Yrotation Xrotation Zrotation
         End Site
         {
          OFFSET 0.000000 -17.728500 0.000000
         }
        }
       }
      }
     }
     JOINT LeftCollar
     {
      OFFSET 2.921100 9.558500 0.000000
      CHANNELS 3 Yrotation Xrotation Zrotation
      JOINT LeftShoulder
      {
       OFFSET 13.519700 0.000000 0.000000
       CHANNELS 3 Yrotation Xrotation Zrotation
       JOINT LeftElbow
       {
        OFFSET 0.000000 -29.696600 0.000000
        CHANNELS 3 Yrotation Xrotation Zrotation
        JOINT LeftWrist
        {
         OFFSET 0.000000 -24.004700 0.000000
         CHANNELS 3 Yrotation Xrotation Zrotation
         End Site
         {
          OFFSET 0.000000 -17.728500 0.000000
         }
        }
       }
      }
     }
    }
   }
  }
 }
 JOINT RightHip
 {
  OFFSET -7.771700 -0.012900 -0.001300
  CHANNELS 3 Yrotation Xrotation Zrotation
  JOINT RightKnee
  {
   OFFSET 0.000000 -40.869800 0.001200
   CHANNELS 3 Yrotation Xrotation Zrotation
   JOINT RightAnkle
   {
    OFFSET 0.000000 -39.717900 0.002100
    CHANNELS 3 Yrotation Xrotation Zrotation
    JOINT RightToe
    {
     OFFSET 0.000000 -4.965400 11.033500
     CHANNELS 3 Yrotation Xrotation Zrotation
     End Site
     {
      OFFSET 0.000000 -1.423100 5.872300
     }
    }
   }
  }
 }
 JOINT LeftHip
 {
  OFFSET 7.771700 -0.012900 -0.001300
  CHANNELS 3 Yrotation Xrotation Zrotation
  JOINT LeftKnee
  {
   OFFSET 0.000000 -40.869800 0.001200
   CHANNELS 3 Yrotation Xrotation Zrotation
   JOINT LeftAnkle
   {
    OFFSET 0.000000 -39.717900 0.002100
    CHANNELS 3 Yrotation Xrotation Zrotation
    JOINT LeftToe
    {
     OFFSET 0.000000 -4.965400 11.033500
     CHANNELS 3 Yrotation Xrotation Zrotation
     End Site
     {
      OFFSET 0.000000 -1.423100 5.872300
     }
    }
   }
  }
 }
}
MOTION
Frames: 11
Frame Time: 0.008333
0.000000 85.388000 0.000000 0.000000 -5.767877 0.000000 0.000000 11.653817 0.000000 0.000000 -5.885947 0.000000 0.000000 -0.000000 0.000000 0.000000 -0.000000 0.000000 0.000000 12.528835 0.000000 0.000000 0.711642 0.000000 0.000000 -0.000000 0.000000 0.000000 0.000000 -90.000000 0.000000 -2.309062 0.000000 0.000000 2.309062 0.000000 0.000000 -0.000000 0.000000 0.000000 -0.000000 90.000000 0.000000 -2.309062 0.000000 0.000000 2.309062 0.000000 0.000000 8.520406 0.000000 0.000000 1.905762 0.000000 -0.000000 -4.658285 0.000000 0.000000 -0.000000 0.000000 0.000000 8.520406 0.000000 0.000000 1.905762 0.000000 -0.000000 -4.658285 0.000000 0.000000 -0.000000 0.000000
-16.606943 55.270015 -31.774090 -178.945841 -16.750052 -1.637713 0.628580 15.886713 0.295694 0.058638 1.547529 0.035095 0.117391 2.586324 0.066807 0.612957 14.125658 0.400387 6.661993 13.610597 -1.768992 7.672525 -11.239551 -3.490516 -2.771933 0.017808 2.513830 2.363596 -5.545293 -7.562370 -86.642929 -65.553410 116.656393 -13.313456 -4.312068 0.763729 -8.313790 -1.573226 1.861814 8.308268 -17.265654 12.738269 75.874727 -59.541628 -112.345644 4.894708 -9.554346 5.030162 0.058330 -58.175895 11.787224 -104.988452 88.500353 -109.610576 -10.531965 -22.608830 13.170997 0.009081 -0.047632 -0.002539 9.693591 -54.902401 -6.153072 113.657411 77.452831 111.430051 -7.037850 -23.422705 0.965507 0.063275 0.176451 0.024625
-16.604823 55.268730 -31.776009 -178.978833 -16.725070 -1.656527 0.652474 15.874177 0.313439 0.067208 1.537858 0.039550 0.110319 2.586064 0.064939 0.616700 14.111220 0.404042 6.721607 13.579559 -1.710948 7.729054 -11.268535 -3.445140 -2.876346 0.006327 2.486601 2.367313 -5.474953 -7.560394 -86.617736 -65.556352 116.653209 -13.306958 -4.324965 0.756086 -8.336452 -1.576813 1.875318 8.435253 -17.337062 12.758827 76.073306 -59.206431 -112.668741 5.031546 -9.636027 5.069395 0.058269 -58.204710 11.825935 -104.893046 88.503988 -109.511388 -10.473260 -22.608373 13.159245 0.014801 -0.049640 -0.003612 9.672943 -54.933480 -6.126116 113.647161 77.432813 111.424502 -6.991290 -23.400757 0.961963 0.029848 0.149803 -0.000235
-16.609443 55.267266 -31.778641 -178.974525 -16.701700 -1.647969 0.634557 15.859275 0.294802 0.071899 1.532758 0.041975 0.104448 2.583298 0.063080 0.615543 14.096914 0.408651 6.758248 13.573432 -1.683304 7.804517 -11.317558 -3.380171 -2.976179 -0.001070 2.457395 2.313684 -5.373639 -7.577314 -86.635929 -65.541718 116.757061 -13.302888 -4.331515 0.753361 -8.349660 -1.566449 1.891960 8.516540 -17.372833 12.752729 76.393563 -58.905085 -113.066113 5.156966 -9.743999 5.122463 0.095281 -58.231637 11.790086 -105.066992 88.497789 -109.677905 -10.476090 -22.607330 13.165350 0.021256 -0.050881 0.000937 9.676240 -54.954835 -6.157614 113.652933 77.431011 111.443777 -6.994217 -23.436254 0.945613 0.056887 0.183665 0.006941
-16.609459 55.264685 -31.777413 -178.983742 -16.655077 -1.663848 0.636017 15.818989 0.305684 0.060949 1.533481 0.038396 0.115295 2.575566 0.068031 0.613291 14.083645 0.415047 6.830870 13.537966 -1.615484 7.854659 -11.327452 -3.350645 -3.074276 -0.006908 2.425102 2.357271 -5.316770 -7.571887 -86.649374 -65.538550 116.797143 -13.287738 -4.325755 0.708765 -8.360688 -1.554983 1.904984 8.688954 -17.469412 12.760584 76.645395 -58.586175 -113.473074 5.248478 -9.887582 5.207540 0.088354 -58.283388 11.815937 -104.897416 88.490571 -109.501772 -10.476663 -22.595944 13.164767 0.015972 -0.053237 0.004621 9.663133 -55.005636 -6.141741 113.650735 77.424802 111.440658 -6.987702 -23.445482 0.950283 0.048679 0.194830 0.000929
-16.611395 55.263367 -31.780359 -178.983768 -16.637483 -1.671573 0.625881 15.808126 0.306224 0.060332 1.530016 0.039077 0.101759 2.566302 0.066513 0.623344 14.070513 0.423269 6.905784 13.510526 -1.550990 7.906209 -11.335381 -3.324023 -3.165930 -0.005075 2.391398 2.421182 -5.273736 -7.561626 -86.655546 -65.542898 116.806904 -13.278366 -4.318714 0.671329 -8.363696 -1.536196 1.920171 8.867710 -17.565882 12.752570 77.000658 -58.338594 -113.974152 5.302791 -10.061826 5.326758 0.084329 -58.302763 11.826167 -105.039221 88.489559 -109.639803 -10.502955 -22.591820 13.169014 0.015901 -0.053298 0.008991 9.650023 -55.024833 -6.136780 113.655573 77.424662 111.448025 -6.980483 -23.447294 0.946941 0.049472 0.199459 0.007943
-16.614966 55.261856 -31.782227 -178.982438 -16.617733 -1.669105 0.614385 15.796414 0.296343 0.059671 1.527180 0.039860 0.100634 2.561749 0.067750 0.615199 14.053481 0.429407 6.946412 13.510549 -1.530746 7.986424 -11.370563 -3.272886 -3.199668 0.003036 2.368880 2.309142 -5.178971 -7.599720 -86.658561 -65.544141 116.868951 -13.313205 -4.342402 0.766190 -8.368295 -1.508342 1.954424 9.027246 -17.648185 12.701588 77.517957 -58.197181 -114.587176 5.324648 -10.260373 5.467064 0.104789 -58.327076 11.816448 -105.159560 88.478600 -109.746708 -10.592136 -22.583895 13.184891 0.013947 -0.048050 0.015366 9.624126 -55.046937 -6.148428 113.622919 77.408391 111.412925 -6.954956 -23.442863 0.931522 0.035933 0.200076 0.005410
-16.615397 55.259632 -31.780542 -178.976021 -16.580383 -1.685029 0.606910 15.765673 0.305396 0.060381 1.523711 0.041873 0.098300 2.563654 0.066793 0.604334 14.036930 0.437678 6.985303 13.507267 -1.512542 8.065728 -11.396681 -3.227183 -3.302051 -0.007714 2.328155 2.301149 -5.088280 -7.599664 -86.658662 -65.537416 116.925372 -13.303244 -4.341304 0.771442 -8.368558 -1.486062 1.960607 9.161367 -17.733080 12.665935 78.131543 -58.132452 -115.269642 5.320566 -10.479133 5.610156 0.090251 -58.366457 11.838019 -105.029396 88.474936 -109.605897 -10.661009 -22.577399 13.197291 0.012275 -0.040468 0.018310 9.582625 -55.091944 -6.132170 113.618788 77.397550 111.403099 -6.943758 -23.444525 0.937595 0.029710 0.206243 -0.006125
-16.616328 55.258583 -31.781845 -178.967915 -16.566177 -1.696740 0.600319 15.753863 0.313143 0.059095 1.525057 0.040757 0.097212 2.568778 0.066259 0.599083 14.025216 0.445888 7.082895 13.481816 -1.437609 8.090649 -11.392599 -3.224679 -3.403235 -0.031078 2.293196 2.308423 -5.003159 -7.587685 -86.692168 -65.524807 117.035127 -13.279889 -4.329353 0.721357 -8.373002 -1.467015 1.966168 9.274152 -17.824974 12.625478 78.808536 -58.113495 -115.988505 5.303144 -10.705694 5.740828 0.082438 -58.380410 11.839694 -105.155470 88.480178 -109.728084 -10.670395 -22.582206 13.202913 0.033597 -0.036056 0.018757 9.555826 -55.109612 -6.120236 113.613981 77.397845 111.400783 -6.940481 -23.443415 0.931018 0.035108 0.208619 -0.003202
-16.616635 55.257647 -31.782424 -178.959549 -16.551103 -1.709910 0.594682 15.752872 0.318779 0.058707 1.524021 0.041641 0.094627 2.564119 0.068399 0.593139 14.028789 0.457920 7.157089 13.459997 -1.397017 8.137194 -11.399967 -3.208272 -3.472994 -0.070327 2.259644 2.292138 -4.914718 -7.571712 -86.683234 -65.533100 117.051956 -13.271145 -4.336344 0.736063 -8.370783 -1.459529 1.966289 9.365864 -17.921454 12.582829 79.522004 -58.105405 -116.728723 5.287632 -10.920994 5.855877 0.064734 -58.394060 11.846572 -105.296431 88.488613 -109.875542 -10.640784 -22.589391 13.205013 0.000923 -0.039016 0.013562 9.527354 -55.129179 -6.106322 113.609773 77.400029 111.401114 -6.938943 -23.441063 0.923062 0.043898 0.210713 0.000481
-16.618023 55.256694 -31.781951 -178.960516 -16.532521 -1.711650 0.588299 15.751372 0.311426 0.060929 1.516197 0.044306 0.096023 2.561141 0.071820 0.592346 14.026241 0.463806 7.215828 13.453687 -1.364232 8.196782 -11.404790 -3.187584 -3.541556 -0.104093 2.231386 2.280538 -4.820616 -7.546064 -86.674826 -65.550408 117.056207 -13.261431 -4.341348 0.747525 -8.370165 -1.446641 1.966647 9.447111 -18.015899 12.540594 80.244174 -58.079344 -117.477396 5.281621 -11.111498 5.956243 0.067024 -58.411862 11.854398 -105.128804 88.476336 -109.701909 -10.715374 -22.591711 13.226681 -0.006217 -0.027088 0.010611 9.486511 -55.147340 -6.091013 113.585420 77.393670 111.361202 -6.921277 -23.449483 0.917082 0.030675 0.222490 -0.001582
